<?xml version="1.0" encoding="utf-8"?>
<!-- Generator: Adobe Illustrator 15.0.0, SVG Export Plug-In . SVG Version: 6.00 Build 0)  -->
<!DOCTYPE svg PUBLIC "-//W3C//DTD SVG 1.1//EN" "http://www.w3.org/Graphics/SVG/1.1/DTD/svg11.dtd">
<svg version="1.1" id="Layer_1" xmlns="http://www.w3.org/2000/svg" xmlns:xlink="http://www.w3.org/1999/xlink" x="0px" y="0px"
	 width="128px" height="128px" viewBox="0 0 128 128" enable-background="new 0 0 128 128" xml:space="preserve">
<g>
	<path fill="#010101" d="M105.838,111.06c0.022-0.542-0.007-1.092-0.099-1.64L90.762,27.186c-0.6-3.604-3.688-6.222-7.342-6.222
		h-8.072l-2.484-9.002c-0.402-1.46-1.742-2.48-3.258-2.48H57.968c-1.515,0-2.854,1.02-3.259,2.48l-2.482,9.002h-8.072
		c-3.654,0-6.743,2.617-7.341,6.202L21.83,109.438c-0.092,0.553-0.122,1.107-0.096,1.656c-0.003,0.078-0.013,0.154-0.013,0.233
		c0,3.977,3.235,7.212,7.212,7.212h0.606h68.493h0.607c3.976,0,7.211-3.235,7.211-7.212
		C105.852,111.238,105.841,111.149,105.838,111.06z M57.161,12.64c0.1-0.362,0.432-0.614,0.807-0.614h11.638
		c0.375,0,0.707,0.252,0.807,0.613l2.296,8.325H54.864L57.161,12.64z M39.319,27.604c0.396-2.373,2.429-4.096,4.835-4.096h7.37
		H76.05h7.37c2.405,0,4.438,1.722,4.837,4.114l14.125,77.555c-1.092-0.668-2.37-1.06-3.741-1.06H28.934
		c-1.371,0-2.649,0.392-3.742,1.059L39.319,27.604z M29.54,115.996c-1.554,0-3.02-0.68-4.023-1.864
		c-0.731-0.864-1.148-1.928-1.229-3.026c0.119-2.468,2.148-4.444,4.646-4.444h69.707c2.493,0,4.52,1.971,4.644,4.435
		c-0.078,1.106-0.495,2.172-1.229,3.036c-1.003,1.185-2.47,1.864-4.022,1.864H29.54z"/>
	<path fill="#010101" d="M63.704,13.282c-2.042,0-3.641,1.411-3.641,3.212c0,1.802,1.599,3.212,3.641,3.212
		c2.041,0,3.641-1.41,3.641-3.212C67.345,14.693,65.745,13.282,63.704,13.282z M63.704,17.163c-0.606,0-1.098-0.3-1.098-0.669
		s0.491-0.668,1.098-0.668c0.605,0,1.097,0.299,1.097,0.668S64.31,17.163,63.704,17.163z"/>
</g>
</svg>
