<?xml version="1.0" encoding="utf-8"?>
<!-- Generator: Adobe Illustrator 15.0.0, SVG Export Plug-In . SVG Version: 6.00 Build 0)  -->
<!DOCTYPE svg PUBLIC "-//W3C//DTD SVG 1.1//EN" "http://www.w3.org/Graphics/SVG/1.1/DTD/svg11.dtd">
<svg version="1.1" id="Layer_1" xmlns="http://www.w3.org/2000/svg" xmlns:xlink="http://www.w3.org/1999/xlink" x="0px" y="0px"
	 width="128px" height="128px" viewBox="0 0 128 128" enable-background="new 0 0 128 128" xml:space="preserve">
<g>
	<path fill="#010101" d="M99.908,17.196C89.664,9.388,77.459,5.261,64.613,5.261c-18.368,0-35.281,8.368-46.401,22.958
		C-1.273,53.781,3.671,90.43,29.234,109.915c10.243,7.808,22.448,11.935,35.295,11.935c18.368,0,35.28-8.367,46.401-22.957
		C130.416,73.329,125.471,36.68,99.908,17.196z M30.776,107.893C6.29,89.228,1.57,54.247,20.234,29.761
		c2.358-3.094,4.99-5.853,7.815-8.308c0.061,0.056,0.108,0.123,0.181,0.168c0.143,0.087,14.455,8.953,30.187,27.277
		c0.896,1.042,2.271,1.536,3.584,1.282c3.802-0.727,7.747,0.198,10.824,2.544c5.304,4.042,6.908,11.253,3.814,17.145
		c-0.783,1.494-0.707,3.371,0.199,4.9c6.752,11.387,11.85,23.021,16.04,36.613c0.017,0.054,0.05,0.096,0.073,0.146
		c-8.664,5.121-18.505,7.778-28.423,7.778C52.747,119.307,40.87,115.586,30.776,107.893z M108.908,97.35
		c-3.938,5.166-8.61,9.438-13.749,12.809c-4.225-13.582-9.354-25.257-16.132-36.686c-0.459-0.775-0.512-1.703-0.133-2.42
		c3.671-6.996,1.768-15.555-4.525-20.352c-3.652-2.783-8.335-3.885-12.846-3.018c-0.419,0.076-0.873-0.089-1.175-0.441
		c-14.35-16.715-27.583-25.713-30.282-27.466c9.976-7.873,22.205-11.97,34.547-11.971c11.782,0,23.659,3.72,33.753,11.415
		C122.853,37.883,127.572,72.863,108.908,97.35z"/>
	<path fill="#010101" d="M61.641,67.398c0.851,0.649,1.869,0.99,2.92,0.99c0.217,0,0.437-0.014,0.656-0.044
		c1.279-0.173,2.414-0.832,3.197-1.859s1.119-2.297,0.946-3.576c-0.173-1.279-0.832-2.415-1.859-3.198s-2.295-1.116-3.576-0.946
		c-1.279,0.173-2.415,0.833-3.198,1.86s-1.119,2.296-0.946,3.576C59.954,65.48,60.615,66.617,61.641,67.398z M62.75,62.167
		c0.371-0.486,0.909-0.799,1.515-0.881c0.104-0.014,0.208-0.021,0.312-0.021c0.498,0,0.979,0.162,1.383,0.469
		c0.486,0.371,0.799,0.909,0.881,1.514c0.081,0.606-0.078,1.208-0.449,1.695c-0.37,0.486-0.908,0.799-1.514,0.881
		c-0.604,0.081-1.207-0.078-1.694-0.449c-0.486-0.37-0.799-0.908-0.881-1.513C62.221,63.255,62.379,62.654,62.75,62.167z"/>
	<path fill="#010101" d="M68.523,76.578c-4.743,1.436-9.896,0.18-13.443-3.273c-4.803-4.676-5.506-12.049-1.671-17.533
		c0.403-0.576,0.263-1.369-0.313-1.771c-0.577-0.401-1.368-0.261-1.771,0.313c-4.552,6.511-3.719,15.265,1.981,20.813
		c3.06,2.978,7.122,4.578,11.274,4.578c1.563,0,3.14-0.227,4.678-0.693c0.674-0.203,1.054-0.912,0.85-1.584
		C69.904,76.756,69.189,76.373,68.523,76.578z"/>
</g>
</svg>
