<?xml version="1.0" encoding="utf-8"?>
<!-- Generator: Adobe Illustrator 15.0.0, SVG Export Plug-In . SVG Version: 6.00 Build 0)  -->
<!DOCTYPE svg PUBLIC "-//W3C//DTD SVG 1.1//EN" "http://www.w3.org/Graphics/SVG/1.1/DTD/svg11.dtd">
<svg version="1.1" id="Layer_1" xmlns="http://www.w3.org/2000/svg" xmlns:xlink="http://www.w3.org/1999/xlink" x="0px" y="0px"
	 width="128px" height="128px" viewBox="0 0 128 128" enable-background="new 0 0 128 128" xml:space="preserve">
<g>
	<g>
		<path fill="#010101" d="M95.041,75.534h-0.637V73.97c0-0.449-0.324-0.803-0.748-0.887V31.471c0.424-0.083,0.748-0.439,0.748-0.886
			v-1.92c0-0.034-0.016-0.063-0.02-0.096h0.656c0.471,0,0.92-0.204,1.229-0.558c0.311-0.354,0.453-0.826,0.389-1.292l-0.596-4.424
			c-0.109-0.805-0.805-1.413-1.617-1.413h-0.789v-0.929c1.223-0.332,2.131-1.441,2.131-2.768v-2.994
			c0-1.503-1.223-2.726-2.725-2.726h-56.28c-1.502,0-2.726,1.222-2.726,2.726v2.994c0,1.327,0.908,2.436,2.131,2.768v0.929h-0.789
			c-0.812,0-1.508,0.607-1.617,1.413l-0.596,4.423c-0.063,0.466,0.079,0.937,0.388,1.292c0.31,0.354,0.758,0.558,1.229,0.558h0.656
			c-0.003,0.033-0.019,0.062-0.019,0.096v1.92c0,0.447,0.326,0.803,0.749,0.886v41.612c-0.423,0.084-0.749,0.438-0.749,0.887v1.564
			h-0.637c-0.471,0-0.918,0.203-1.229,0.557c-0.31,0.355-0.451,0.826-0.388,1.291l0.596,4.426c0.109,0.805,0.805,1.412,1.617,1.412
			h0.789v0.928c-1.223,0.332-2.131,1.441-2.131,2.77v2.992c0,1.504,1.223,2.727,2.726,2.727h56.28c1.502,0,2.725-1.223,2.725-2.727
			v-2.992c0-1.328-0.908-2.438-2.131-2.77V83.22h0.789c0.812,0,1.508-0.607,1.617-1.414l0.596-4.424
			c0.064-0.465-0.078-0.936-0.389-1.291C95.961,75.737,95.512,75.534,95.041,75.534z M81.535,84.036
			c-0.988,0-1.984,0.221-3.074,0.664v-2.41c0.785-0.031,1.447-0.623,1.553-1.406l0.596-4.422c0.062-0.467-0.078-0.938-0.389-1.293
			c-0.311-0.354-0.758-0.557-1.229-0.557h-0.543l0.006-1.023c0.002-0.508-0.408-0.922-0.918-0.926c-0.002,0-0.002,0-0.004,0
			c-0.506,0-0.918,0.41-0.922,0.918l-0.004,1.031h-0.52c-0.471,0-0.92,0.203-1.229,0.557c-0.311,0.355-0.451,0.826-0.389,1.293
			l0.596,4.422c0.105,0.783,0.768,1.377,1.553,1.406v2.41c-1.09-0.443-2.086-0.664-3.074-0.664H56.299
			c-0.983,0-1.976,0.219-3.06,0.658V82.29c0.784-0.029,1.446-0.621,1.552-1.406l0.597-4.424c0.062-0.465-0.08-0.936-0.39-1.291
			c-0.309-0.354-0.757-0.557-1.227-0.557h-0.543l0.005-1.023c0.003-0.51-0.408-0.922-0.917-0.926c0,0-0.002,0-0.004,0
			c-0.507,0-0.918,0.41-0.921,0.918l-0.005,1.031h-0.52c-0.47,0-0.918,0.203-1.228,0.557c-0.31,0.355-0.451,0.826-0.388,1.293
			l0.596,4.424c0.106,0.783,0.768,1.375,1.551,1.404v2.416c-1.095-0.445-2.096-0.67-3.088-0.67H38.031v-63.97h10.278
			c0.988,0,1.985-0.221,3.075-0.665v2.409c-0.784,0.032-1.445,0.624-1.552,1.407l-0.596,4.424c-0.062,0.467,0.079,0.937,0.389,1.291
			c0.31,0.354,0.758,0.558,1.229,0.558h0.531v1.094c0,0.508,0.412,0.921,0.922,0.921c0.508,0,0.921-0.413,0.921-0.921v-1.094h0.531
			c0.471,0,0.918-0.203,1.229-0.558c0.309-0.355,0.451-0.825,0.388-1.292l-0.597-4.424c-0.106-0.783-0.768-1.375-1.551-1.406v-2.409
			c1.089,0.443,2.085,0.664,3.073,0.664h17.246c0.984,0,1.977-0.219,3.061-0.658v2.402c-0.787,0.032-1.447,0.625-1.551,1.407
			l-0.598,4.423c-0.062,0.467,0.078,0.937,0.389,1.292c0.309,0.354,0.758,0.558,1.229,0.558h0.531v1.094
			c0,0.508,0.412,0.921,0.92,0.921c0.51,0,0.922-0.413,0.922-0.921v-1.094h0.531c0.471,0,0.92-0.203,1.229-0.558
			c0.311-0.355,0.451-0.825,0.389-1.292L80,23.22c-0.105-0.785-0.768-1.377-1.553-1.409v-2.415c1.096,0.447,2.096,0.67,3.088,0.67
			h10.279v63.97H81.535z M78.75,76.454l-0.539,4h-1.342l-0.539-4H78.75z M53.53,76.454l-0.54,4h-1.343l-0.539-4H53.53z
			 M51.093,27.648l0.54-4h1.344l0.539,4H51.093z M76.316,27.648l0.539-4h1.342l0.539,4H76.316z M94.26,22.727l0.539,4h-1.143v-4
			H94.26z M35.9,14.193c0-0.488,0.396-0.883,0.883-0.883h56.28c0.486,0,0.883,0.396,0.883,0.883v2.994
			c0,0.573-0.465,1.037-1.037,1.037H81.535c-1.076,0-2.098-0.354-3.064-0.826c-0.008-0.003-0.016-0.005-0.023-0.008v-1.623
			c0-0.508-0.412-0.921-0.922-0.921c-0.508,0-0.92,0.413-0.92,0.921V17.4c-0.967,0.471-1.984,0.824-3.061,0.824H56.299
			c-1.077,0-2.098-0.354-3.065-0.826c-0.002-0.001-0.006-0.002-0.008-0.003v-1.628c0-0.508-0.413-0.921-0.921-0.921
			c-0.51,0-0.922,0.413-0.922,0.921v1.628c-0.003,0.001-0.006,0.002-0.009,0.003c-0.968,0.472-1.989,0.826-3.065,0.826H36.937
			c-0.572,0-1.037-0.464-1.037-1.037V14.193z M35.583,22.727h0.605v4h-1.144L35.583,22.727z M35.583,81.376l-0.539-4h1.144v4H35.583
			z M93.945,89.909c0,0.488-0.396,0.885-0.883,0.885h-56.28c-0.487,0-0.883-0.396-0.883-0.885v-2.992
			c0-0.574,0.464-1.037,1.037-1.037h11.372c1.077,0,2.098,0.354,3.065,0.826c0.007,0.002,0.016,0.004,0.022,0.008v1.623
			c0,0.51,0.413,0.922,0.922,0.922c0.509,0,0.921-0.412,0.921-0.922v-1.635c0.966-0.469,1.985-0.822,3.06-0.822h17.246
			c1.078,0,2.098,0.354,3.066,0.826c0.002,0,0.006,0,0.008,0.002v1.629c0,0.51,0.412,0.922,0.922,0.922
			c0.508,0,0.92-0.412,0.92-0.922v-1.629c0.004-0.002,0.006-0.002,0.01-0.002c0.967-0.473,1.988-0.826,3.064-0.826h11.373
			c0.572,0,1.037,0.463,1.037,1.037V89.909z M94.26,81.376h-0.604v-4h1.143L94.26,81.376z"/>
	</g>
	<g>
		<g>
			<g>
				<path fill="#010101" d="M35.268,117.37c-0.508,0-0.921-0.412-0.921-0.92v-8.986c0-0.244,0.098-0.479,0.27-0.65l8.558-8.557
					v-20.35c0-0.51,0.412-0.922,0.921-0.922s0.922,0.412,0.922,0.922v20.73c0,0.244-0.098,0.479-0.27,0.65l-8.558,8.559v8.604
					C36.189,116.958,35.777,117.37,35.268,117.37z"/>
			</g>
			<g>
				<path fill="#010101" d="M94.576,117.37c-0.508,0-0.922-0.412-0.922-0.92v-8.604l-8.557-8.559
					c-0.174-0.172-0.271-0.406-0.271-0.65v-20.73c0-0.51,0.414-0.922,0.922-0.922c0.51,0,0.922,0.412,0.922,0.922v20.35l8.559,8.557
					c0.172,0.172,0.27,0.406,0.27,0.65v8.986C95.498,116.958,95.084,117.37,94.576,117.37z"/>
			</g>
			<g>
				<path fill="#010101" d="M33.059,118.729l0.756-3.645c0.072-0.348,0.379-0.598,0.734-0.598h1.438c0.356,0,0.663,0.25,0.734,0.598
					l0.756,3.645c0.096,0.467-0.259,0.902-0.734,0.902h-2.95C33.318,119.632,32.963,119.196,33.059,118.729z"/>
			</g>
			<g>
				<path fill="#010101" d="M92.367,118.729l0.756-3.645c0.072-0.348,0.379-0.598,0.734-0.598h1.438c0.355,0,0.662,0.25,0.734,0.598
					l0.756,3.645c0.096,0.467-0.258,0.902-0.734,0.902h-2.949C92.627,119.632,92.271,119.196,92.367,118.729z"/>
			</g>
		</g>
		<g>
			<g>
				<path fill="#010101" d="M62.713,115.044l0.756-3.645c0.072-0.348,0.378-0.598,0.733-0.598h1.438c0.357,0,0.662,0.25,0.734,0.598
					l0.756,3.645c0.098,0.467-0.258,0.902-0.732,0.902h-2.951C62.972,115.946,62.617,115.511,62.713,115.044z"/>
			</g>
			<g>
				<path fill="#010101" d="M64.922,114.296c-0.509,0-0.921-0.412-0.921-0.922v-21.34c0-0.51,0.413-0.922,0.921-0.922
					c0.509,0,0.921,0.412,0.921,0.922v21.34C65.844,113.884,65.432,114.296,64.922,114.296z"/>
			</g>
		</g>
	</g>
</g>
</svg>
