<?xml version="1.0" encoding="utf-8"?>
<!-- Generator: Adobe Illustrator 15.0.0, SVG Export Plug-In . SVG Version: 6.00 Build 0)  -->
<!DOCTYPE svg PUBLIC "-//W3C//DTD SVG 1.1//EN" "http://www.w3.org/Graphics/SVG/1.1/DTD/svg11.dtd">
<svg version="1.1" id="Layer_1" xmlns="http://www.w3.org/2000/svg" xmlns:xlink="http://www.w3.org/1999/xlink" x="0px" y="0px"
	 width="128px" height="128px" viewBox="0 0 128 128" enable-background="new 0 0 128 128" xml:space="preserve">
<g>
	<path fill="#010101" d="M122.358,56.961L84.988,46.28c-2.185-0.625-4.042-1.899-5.23-3.589c-3.209-4.562-8.307-7.381-13.814-7.762
		L65.937,22.37c-0.001-0.703-0.57-1.271-1.272-1.271c-0.703,0-1.271,0.569-1.271,1.272L63.4,34.93
		c-5.508,0.388-10.603,3.213-13.806,7.779c-1.187,1.691-3.042,2.968-5.226,3.595L7.012,57.03c-1.371,0.393-2.19,1.655-1.99,3.069
		c0.162,1.149,0.945,2.012,2,2.294l-0.006,0.021l37.37,10.683c2.184,0.623,4.041,1.897,5.229,3.589
		c2.567,3.648,6.343,6.197,10.569,7.269l0.012,19.647c0.001,0.395,0.183,0.764,0.493,1.005c0.162,0.126,1.645,1.22,4.024,1.219
		s3.861-1.098,4.022-1.224c0.311-0.241,0.492-0.611,0.492-1.005l-0.012-19.647c4.226-1.076,7.998-3.63,10.562-7.283
		c1.187-1.691,3.042-2.968,5.226-3.594l37.356-10.727l-0.006-0.021c1.054-0.284,1.837-1.148,1.998-2.297
		C124.55,58.614,123.729,57.353,122.358,56.961z M66.685,102.864c-0.424,0.192-1.105,0.417-1.973,0.417
		c-0.873,0-1.551-0.221-1.973-0.412l-0.011-18.465c0.652,0.07,1.31,0.119,1.973,0.119s1.32-0.051,1.973-0.121L66.685,102.864z
		 M84.303,70.627c-2.741,0.787-5.088,2.413-6.607,4.578c-2.974,4.238-7.833,6.771-12.996,6.774s-10.024-2.524-13.004-6.757
		c-1.521-2.166-3.869-3.789-6.611-4.57l-15.836-4.527c8.732,0.865,20.365,1.539,35.443,1.531c15.076-0.01,26.707-0.697,35.438-1.573
		L84.303,70.627z M121.591,59.885l-0.206,0l-0.195,0.064c-0.154,0.052-15.946,5.138-56.5,5.161
		c-40.554,0.025-56.352-5.042-56.506-5.094l-0.196-0.064l-0.205,0c-0.08,0-0.213,0-0.242-0.21c-0.029-0.211,0.099-0.247,0.174-0.27
		l37.357-10.726c2.74-0.787,5.086-2.413,6.605-4.577c2.729-3.888,7.046-6.315,11.725-6.697l0.001,1.194
		c0,0.703,0.57,1.271,1.272,1.271s1.271-0.569,1.271-1.272v-1.194c4.68,0.376,8.999,2.798,11.732,6.683
		c1.521,2.163,3.869,3.786,6.611,4.569l37.369,10.681c0.076,0.022,0.204,0.059,0.175,0.27
		C121.804,59.885,121.671,59.885,121.591,59.885z"/>
	<path fill="#010101" d="M74.228,51.644c-8.877,4.012-19.037,0.031-19.14-0.01c-0.652-0.262-1.393,0.054-1.653,0.707
		c-0.262,0.651,0.054,1.391,0.704,1.654c0.3,0.121,5.086,2.005,11.145,2.002c3.139-0.002,6.619-0.511,9.991-2.035
		c0.64-0.289,0.925-1.043,0.636-1.682C75.62,51.638,74.866,51.353,74.228,51.644z"/>
</g>
</svg>
