<?xml version="1.0" encoding="utf-8"?>
<!-- Generator: Adobe Illustrator 15.0.0, SVG Export Plug-In . SVG Version: 6.00 Build 0)  -->
<!DOCTYPE svg PUBLIC "-//W3C//DTD SVG 1.1//EN" "http://www.w3.org/Graphics/SVG/1.1/DTD/svg11.dtd">
<svg version="1.1" id="Layer_1" xmlns="http://www.w3.org/2000/svg" xmlns:xlink="http://www.w3.org/1999/xlink" x="0px" y="0px"
	 width="128px" height="128px" viewBox="0 0 128 128" enable-background="new 0 0 128 128" xml:space="preserve">
<path fill="#010101" d="M112.945,70.931h-0.879v-2.158c0-0.618-0.449-1.108-1.033-1.224v-7.84c0.584-0.115,1.033-0.606,1.033-1.224
	v-2.65c0-0.047-0.021-0.087-0.027-0.132h0.906c0.649,0,1.268-0.281,1.695-0.771c0.429-0.489,0.623-1.139,0.537-1.782l-0.824-6.106
	c-0.15-1.112-1.11-1.95-2.231-1.95h-1.089v-1.282c1.688-0.458,2.94-1.989,2.94-3.821v-4.133c0-2.075-1.688-3.763-3.763-3.763H17.263
	c-2.075,0-3.763,1.688-3.763,3.763v4.133c0,1.832,1.252,3.363,2.941,3.821v1.282h-1.089c-1.122,0-2.082,0.838-2.232,1.95
	l-0.823,6.106c-0.087,0.643,0.108,1.293,0.536,1.782c0.428,0.489,1.046,0.771,1.696,0.771h0.906
	c-0.005,0.045-0.027,0.085-0.027,0.132v2.65c0,0.617,0.45,1.108,1.034,1.224v7.84c-0.584,0.115-1.034,0.605-1.034,1.224v2.158
	h-0.879c-0.65,0-1.268,0.281-1.696,0.771c-0.428,0.489-0.623,1.14-0.536,1.783l0.823,6.107c0.15,1.11,1.11,1.948,2.232,1.948h1.089
	v1.283c-1.689,0.458-2.941,1.988-2.941,3.82v4.134c0,2.074,1.688,3.763,3.763,3.763h92.948c2.075,0,3.763-1.688,3.763-3.763v-4.134
	c0-1.832-1.252-3.362-2.94-3.82V81.54h1.089c1.121,0,2.08-0.838,2.231-1.949l0.824-6.106c0.086-0.644-0.108-1.294-0.537-1.783
	C114.213,71.212,113.595,70.931,112.945,70.931z M89.214,82.669c-1.364,0-2.739,0.306-4.243,0.917V80.26
	c1.084-0.044,1.997-0.861,2.141-1.941l0.824-6.105c0.086-0.644-0.108-1.294-0.537-1.783c-0.428-0.489-1.046-0.771-1.695-0.771h-0.75
	l0.008-1.411c0.003-0.701-0.562-1.274-1.266-1.277c-0.003,0-0.004,0-0.007,0c-0.699,0-1.269,0.564-1.271,1.266l-0.008,1.423h-0.716
	c-0.65,0-1.269,0.281-1.696,0.771c-0.429,0.489-0.623,1.14-0.536,1.783l0.823,6.104c0.144,1.082,1.058,1.9,2.143,1.943v3.326
	c-1.504-0.611-2.88-0.917-4.243-0.917H49.291c-1.358,0-2.728,0.302-4.224,0.908V80.26c1.082-0.043,1.996-0.859,2.143-1.941
	l0.823-6.106c0.086-0.644-0.109-1.295-0.538-1.782c-0.427-0.489-1.045-0.771-1.695-0.771h-0.75l0.007-1.411
	c0.003-0.703-0.563-1.274-1.266-1.277c-0.002,0-0.004,0-0.006,0c-0.7,0-1.268,0.564-1.271,1.266l-0.007,1.423H41.79
	c-0.65,0-1.268,0.281-1.695,0.771c-0.428,0.489-0.624,1.14-0.537,1.783l0.823,6.106c0.146,1.081,1.06,1.897,2.142,1.94v3.335
	c-1.512-0.617-2.894-0.926-4.263-0.926H18.985V43.965H38.26c1.364,0,2.74-0.305,4.245-0.917v3.326
	c-1.083,0.044-1.996,0.86-2.143,1.942l-0.824,6.106c-0.086,0.644,0.109,1.294,0.537,1.782c0.428,0.489,1.046,0.77,1.696,0.77h0.733
	v1.511c0,0.702,0.569,1.271,1.271,1.271c0.703,0,1.272-0.569,1.272-1.271v-1.511h0.733c0.65,0,1.268-0.28,1.696-0.77
	c0.427-0.49,0.623-1.14,0.536-1.783l-0.824-6.106c-0.146-1.081-1.06-1.897-2.142-1.941v-3.325c1.504,0.611,2.879,0.916,4.243,0.916
	h28.893c1.357,0,2.727-0.302,4.223-0.907v3.316c-1.084,0.044-1.997,0.861-2.141,1.942l-0.823,6.105
	c-0.087,0.644,0.108,1.293,0.536,1.783c0.428,0.489,1.046,0.77,1.695,0.77h0.732v1.511c0,0.702,0.569,1.271,1.272,1.271
	s1.272-0.569,1.272-1.271v-1.511h0.733c0.649,0,1.269-0.28,1.695-0.77c0.429-0.49,0.624-1.14,0.536-1.783l-0.823-6.104
	c-0.144-1.083-1.058-1.9-2.142-1.944v-3.335c1.512,0.617,2.893,0.926,4.263,0.926h19.274v38.704H89.214z M85.369,72.203
	l-0.744,5.521h-1.854l-0.743-5.521H85.369z M45.467,72.203l-0.745,5.521h-1.854l-0.745-5.521H45.467z M42.104,54.431l0.745-5.521
	h1.854l0.745,5.521H42.104z M82.008,54.431l0.744-5.521h1.854l0.744,5.521H82.008z M111.867,47.637l0.744,5.522h-1.578v-5.522
	H111.867z M16.044,35.857c0-0.674,0.545-1.219,1.219-1.219h92.948c0.674,0,1.219,0.545,1.219,1.219v4.133
	c0,0.791-0.641,1.432-1.43,1.432H89.214c-1.486,0-2.896-0.489-4.231-1.141c-0.01-0.006-0.021-0.007-0.031-0.012v-2.24
	c0-0.702-0.569-1.271-1.272-1.271s-1.272,0.569-1.272,1.271v2.255c-1.333,0.649-2.739,1.138-4.223,1.138H49.291
	c-1.487,0-2.896-0.489-4.232-1.141c-0.003-0.002-0.007-0.003-0.011-0.004v-2.248c0-0.702-0.569-1.271-1.272-1.271
	c-0.702,0-1.271,0.569-1.271,1.271v2.247c-0.004,0.002-0.009,0.003-0.013,0.005c-1.336,0.651-2.745,1.141-4.231,1.141H17.475
	c-0.79,0-1.431-0.641-1.431-1.432V35.857z M15.606,47.637h0.835v5.522h-1.58L15.606,47.637z M15.606,78.997l-0.745-5.522h1.58v5.522
	H15.606z M111.43,90.777c0,0.673-0.545,1.219-1.219,1.219H17.263c-0.673,0-1.219-0.546-1.219-1.219v-4.134
	c0-0.79,0.641-1.431,1.431-1.431H38.26c1.487,0,2.896,0.489,4.231,1.141c0.01,0.005,0.021,0.007,0.032,0.011v2.24
	c0,0.703,0.569,1.272,1.271,1.272c0.703,0,1.272-0.569,1.272-1.272V86.35c1.334-0.649,2.74-1.137,4.224-1.137h28.893
	c1.486,0,2.896,0.489,4.231,1.141c0.004,0.002,0.008,0.002,0.012,0.004v2.247c0,0.703,0.569,1.272,1.271,1.272
	c0.703,0,1.272-0.569,1.272-1.272v-2.247c0.004-0.002,0.008-0.002,0.012-0.004c1.336-0.651,2.745-1.141,4.231-1.141H110
	c0.789,0,1.43,0.641,1.43,1.431V90.777z M111.867,78.997h-0.834v-5.522h1.578L111.867,78.997z"/>
</svg>
