<?xml version="1.0" encoding="utf-8"?>
<!-- Generator: Adobe Illustrator 15.0.0, SVG Export Plug-In . SVG Version: 6.00 Build 0)  -->
<!DOCTYPE svg PUBLIC "-//W3C//DTD SVG 1.1//EN" "http://www.w3.org/Graphics/SVG/1.1/DTD/svg11.dtd">
<svg version="1.1" id="Layer_1" xmlns="http://www.w3.org/2000/svg" xmlns:xlink="http://www.w3.org/1999/xlink" x="0px" y="0px"
	 width="128px" height="128px" viewBox="0 0 128 128" enable-background="new 0 0 128 128" xml:space="preserve">
<g>
	<path fill="#010101" d="M63.84,14.648c-26.835,0-48.583,21.748-48.583,48.583c0,26.835,21.748,48.583,48.583,48.583
		c26.836,0,48.584-21.748,48.584-48.583C112.424,36.396,90.676,14.648,63.84,14.648z M63.84,109.271
		c-25.436,0-46.04-20.604-46.04-46.04s20.604-46.04,46.04-46.04c25.437,0,46.04,20.603,46.04,46.04S89.276,109.271,63.84,109.271z"
		/>
	<path fill="#010101" d="M116.239,75.695c1.018-4.07,1.525-8.267,1.525-12.464c0-4.324-0.508-8.521-1.525-12.464l0,0
		c0.254-0.254,0.509-0.636,0.636-1.018c0.636-1.145,0.763-2.543,0.254-3.815c-0.381-1.271-1.271-2.289-2.543-2.925
		c-0.382-0.127-0.764-0.254-1.145-0.382c-3.308-7.885-8.395-14.753-14.754-20.222l0,0c0.128-1.653-0.636-3.434-2.034-4.452
		c-1.146-0.763-2.417-1.145-3.815-0.89c-0.382,0-0.764,0.127-1.146,0.381c-6.994-4.324-15.134-6.995-23.782-7.758l0,0
		c-0.891-1.399-2.417-2.417-4.324-2.417c-1.781,0-3.435,1.018-4.324,2.417l0,0c-8.648,0.636-16.788,3.434-23.783,7.758
		c-0.381-0.127-0.763-0.254-1.145-0.381c-1.399-0.254-2.671,0.127-3.815,0.89c-1.145,0.763-1.781,1.908-2.035,3.307
		c-0.127,0.381,0,0.763,0,1.145c-6.359,5.469-11.446,12.336-14.753,20.222c-0.381,0.127-0.763,0.254-1.145,0.382
		c-1.145,0.636-2.035,1.653-2.544,2.925c-0.381,1.272-0.254,2.671,0.254,3.815c0.127,0.382,0.382,0.636,0.636,1.018l0,0
		c-0.509,3.943-1.018,8.14-1.018,12.464s0.509,8.521,1.526,12.464c-0.254,0.254-0.509,0.636-0.636,1.018
		c-0.636,1.145-0.763,2.543-0.254,3.815c0.509,1.78,1.908,2.925,3.561,3.307l0,0c3.307,7.886,8.394,14.753,14.753,20.222
		c0,0.382,0,0.764,0,1.145c0.254,1.271,0.89,2.544,2.035,3.307c0.891,0.637,1.908,1.018,2.925,1.018c0.254,0,0.509,0,0.763,0
		c0.381,0,0.763-0.127,1.145-0.381l0,0c6.995,4.324,15.135,6.994,23.783,7.758l0,0c0.891,1.398,2.417,2.416,4.324,2.416
		c1.781,0,3.435-1.018,4.324-2.416c8.648-0.637,16.788-3.434,23.783-7.758c0.636,0.254,1.271,0.381,1.907,0.381
		c1.018,0,2.035-0.254,2.926-1.018l0,0c1.526-1.018,2.162-2.798,2.035-4.451c6.358-5.469,11.446-12.336,14.753-20.222
		c1.653-0.382,3.052-1.653,3.561-3.307c0.382-1.272,0.255-2.671-0.254-3.815C116.748,76.331,116.493,76.076,116.239,75.695z
		 M63.84,114.613c-28.361,0-51.381-23.021-51.381-51.382S35.479,11.85,63.84,11.85s51.382,23.02,51.382,51.381
		S92.201,114.613,63.84,114.613z"/>
</g>
</svg>
