<?xml version="1.0" encoding="utf-8"?>
<!-- Generator: Adobe Illustrator 15.0.0, SVG Export Plug-In . SVG Version: 6.00 Build 0)  -->
<!DOCTYPE svg PUBLIC "-//W3C//DTD SVG 1.1//EN" "http://www.w3.org/Graphics/SVG/1.1/DTD/svg11.dtd">
<svg version="1.1" id="Layer_1" xmlns="http://www.w3.org/2000/svg" xmlns:xlink="http://www.w3.org/1999/xlink" x="0px" y="0px"
	 width="128px" height="128px" viewBox="0 0 128 128" enable-background="new 0 0 128 128" xml:space="preserve">
<path fill="#010101" d="M119.066,68.947c0-4.686-3.4-8.577-7.861-9.373c-2.219-4.692-5.107-9.009-8.555-12.813
	c0.141-0.645,0.225-1.311,0.225-1.998c0-5.26-4.278-9.539-9.538-9.539c-1.454,0-2.832,0.33-4.066,0.915
	c-5.181-2.886-10.896-4.926-16.964-5.908c-1.586-3.067-4.763-5.182-8.448-5.182c-3.688,0-6.862,2.121-8.446,5.193
	c-6,0.967-11.734,2.964-17,5.902c-1.227-0.579-2.587-0.92-4.031-0.92c-5.26,0-9.539,4.279-9.539,9.539
	c0,0.684,0.084,1.346,0.225,1.988c-3.519,3.874-6.397,8.19-8.583,12.818c-4.446,0.809-7.829,4.701-7.829,9.377
	c0,2.816,1.243,5.331,3.192,7.076c-0.216,1.941-0.337,3.902-0.337,5.884c0,4.737,0.635,9.435,1.887,13.963
	c1.122,4.056,4.705,6.78,8.916,6.78c2.877,0,5.518-1.335,7.246-3.661c0.686-0.923,1.405-1.806,2.146-2.662
	c0.851,0.252,1.746,0.399,2.678,0.399c5.26,0,9.539-4.279,9.539-9.539c0-0.232-0.025-0.459-0.042-0.686
	c0.756-0.412,1.521-0.807,2.299-1.17c0.948,1.828,2.864,3.006,4.935,3.006c0.604,0,1.203-0.098,1.779-0.29
	c2.597-0.868,6.708-1.903,11.542-1.903c3.622,0,7.079,0.593,10.274,1.762c0.633,0.23,1.293,0.349,1.963,0.349
	c2.08,0,3.922-1.114,4.891-2.913c0.775,0.361,1.535,0.756,2.289,1.164c-0.018,0.228-0.049,0.45-0.049,0.682
	c0,5.26,4.279,9.539,9.539,9.539c0.93,0,1.821-0.151,2.67-0.403c0.742,0.857,1.463,1.741,2.148,2.665
	c1.73,2.328,4.379,3.664,7.266,3.664c4.193,0,7.762-2.699,8.879-6.718c1.553-5.587,2.161-11.394,1.808-17.259
	c-0.054-0.887-0.134-1.766-0.23-2.641C117.828,74.289,119.066,71.765,119.066,68.947z M93.337,37.769
	c3.72,0,6.761,2.921,6.974,6.588c-2.484-2.415-5.203-4.591-8.126-6.478C92.561,37.815,92.943,37.769,93.337,37.769z M63.859,27.595
	c2.006,0,3.804,0.86,5.079,2.218c-0.465-0.044-0.93-0.097-1.398-0.129c-1.221-0.083-2.459-0.126-3.68-0.126
	c-0.002,0-0.003,0-0.005,0c-1.702,0-3.39,0.084-5.062,0.243C60.067,28.451,61.859,27.595,63.859,27.595z M34.382,37.769
	c0.394,0,0.775,0.044,1.151,0.108c-2.887,1.865-5.607,4.027-8.125,6.474C27.624,40.687,30.664,37.769,34.382,37.769z M11.199,68.947
	c0-2.762,1.622-5.128,3.953-6.263c-1.273,3.229-2.22,6.588-2.828,10.038C11.617,71.633,11.199,70.34,11.199,68.947z M34.382,94.183
	c-0.221,0-0.434-0.034-0.649-0.054c2.324-2.354,4.875-4.391,7.591-6.122C40.917,91.479,37.961,94.183,34.382,94.183z M27.414,86.655
	c0.274-3.608,3.291-6.463,6.968-6.463c0.313,0,0.613,0.051,0.916,0.091C32.49,82.139,29.851,84.271,27.414,86.655z M38.224,78.481
	c-1.178-0.523-2.472-0.833-3.842-0.833c-5.26,0-9.539,4.279-9.539,9.539c0,0.662,0.079,1.305,0.211,1.928
	c-0.613,0.681-1.222,1.366-1.803,2.081c-0.123,0.15-0.293,0.221-0.46,0.221c-0.255,0-0.503-0.163-0.566-0.451
	c-0.637-2.946-0.959-5.972-0.959-9.058c0-1.354,0.071-2.691,0.195-4.014c3.654-1.336,6.273-4.836,6.273-8.947
	c0-2.225-0.772-4.27-2.054-5.893c1.641-3.309,3.7-6.372,6.106-9.127c0.827,0.236,1.695,0.375,2.598,0.375
	c5.26,0,9.539-4.279,9.539-9.539c0-0.158-0.022-0.311-0.031-0.466c3.757-2.003,7.848-3.454,12.165-4.257
	c1.725,2.465,4.574,4.087,7.805,4.087c3.236,0,6.094-1.624,7.818-4.096c4.311,0.796,8.396,2.24,12.146,4.235
	c-0.009,0.165-0.025,0.329-0.025,0.496c0,5.26,4.278,9.539,9.539,9.539c0.913,0,1.791-0.14,2.627-0.381
	c2.403,2.756,4.459,5.821,6.097,9.13c-1.289,1.625-2.072,3.665-2.072,5.896c0,4.111,2.619,7.615,6.272,8.953
	c0.042,0.453,0.087,0.904,0.114,1.361c0.237,3.945-0.068,7.877-0.891,11.688c-0.062,0.288-0.312,0.451-0.568,0.451
	c-0.168,0-0.338-0.07-0.46-0.221c-0.577-0.709-1.181-1.388-1.788-2.062c0.132-0.623,0.211-1.267,0.211-1.93
	c0-5.26-4.279-9.539-9.539-9.539c-1.371,0-2.666,0.309-3.845,0.832c-1.281-0.73-2.593-1.402-3.93-2.023
	c0.184-1.014,0.107-2.07-0.278-3.042c-0.569-1.433-1.72-2.575-3.156-3.134c-1.041-0.404-2.131-0.777-3.333-1.137
	c-0.468-0.141-0.962-0.212-1.468-0.212c-0.637,0-1.282,0.108-1.972,0.331c-0.058,0.019-0.114,0.027-0.177,0.027
	c-0.197,0-0.334-0.096-0.412-0.178c-0.828-0.844-1.98-1.408-3.248-1.588c-1.276-0.182-2.582-0.314-3.879-0.395
	c-0.143-0.01-0.286-0.014-0.43-0.014c-1.102,0-2.16,0.271-3.057,0.782c-0.09,0.052-0.19,0.077-0.296,0.077
	c-0.092,0-0.176-0.02-0.257-0.061c-0.991-0.499-1.926-0.741-2.857-0.741c-0.131,0-0.263,0.005-0.395,0.015
	c-1.289,0.1-2.588,0.244-3.863,0.433c-1.437,0.212-2.635,0.725-3.561,1.524c-0.077,0.066-0.207,0.145-0.39,0.145
	c-0.045,0-0.088-0.006-0.132-0.018c-0.544-0.146-1.116-0.221-1.7-0.221c-0.707,0-1.425,0.107-2.137,0.32
	c-0.991,0.295-1.957,0.612-2.871,0.943c-1.471,0.531-2.654,1.67-3.244,3.121c-0.393,0.966-0.475,2.012-0.305,3.023
	C40.812,77.08,39.503,77.751,38.224,78.481z M24.428,65.823c0.477,0.942,0.761,1.997,0.761,3.124c0,2.509-1.342,4.693-3.333,5.926
	C22.381,71.727,23.251,68.697,24.428,65.823z M33.844,51.716c2.249-2.235,4.748-4.216,7.446-5.909
	c-0.506,3.362-3.407,5.952-6.908,5.952C34.199,51.759,34.023,51.73,33.844,51.716z M59.003,39.597
	c1.595-0.182,3.213-0.285,4.855-0.285c0.999,0,2.013,0.036,3.015,0.104c0.621,0.042,1.237,0.101,1.852,0.17
	c-1.26,1.23-2.971,1.999-4.866,1.999C61.969,41.584,60.262,40.82,59.003,39.597z M86.423,45.772c2.72,1.703,5.233,3.702,7.495,5.956
	c-0.191,0.016-0.385,0.031-0.581,0.031C89.823,51.759,86.914,49.152,86.423,45.772z M103.309,65.809
	c1.176,2.881,2.043,5.918,2.564,9.07c-1.995-1.232-3.34-3.42-3.34-5.932C102.533,67.814,102.826,66.756,103.309,65.809z
	 M92.396,80.266c0.309-0.044,0.622-0.073,0.943-0.073c3.678,0,6.695,2.856,6.969,6.465C97.862,84.265,95.215,82.126,92.396,80.266z
	 M76.67,85.711c-0.363,0-0.73-0.062-1.09-0.193c-3.867-1.415-7.682-1.917-11.147-1.917c-5.27,0-9.734,1.161-12.349,2.035
	c-0.321,0.106-0.649,0.159-0.972,0.159c-1.131,0-2.202-0.633-2.719-1.7l-3.504-7.239c-0.113-0.234-0.188-0.475-0.234-0.717
	c-0.004-0.021-0.004-0.041-0.008-0.061c-0.039-0.233-0.055-0.468-0.042-0.699l0,0c0.062-1.162,0.779-2.244,1.958-2.672
	c0.78-0.281,1.697-0.588,2.731-0.896c0.458-0.137,0.935-0.214,1.411-0.214c0.351,0,0.7,0.042,1.04,0.134
	c0.253,0.067,0.518,0.104,0.792,0.104c0.785,0,1.502-0.288,2.053-0.765c0.629-0.543,1.446-0.811,2.269-0.932
	c1.174-0.174,2.405-0.314,3.686-0.412c0.067-0.006,0.134-0.008,0.201-0.008c0.597,0,1.176,0.199,1.714,0.469
	c0.421,0.213,0.896,0.333,1.4,0.333c0.566,0,1.097-0.149,1.557-0.411c0.544-0.311,1.17-0.449,1.797-0.449
	c0.091,0,0.182,0.004,0.271,0.009c1.203,0.075,2.432,0.198,3.68,0.374c0.666,0.096,1.316,0.369,1.787,0.85
	c0.568,0.58,1.354,0.942,2.23,0.942c0.335,0,0.656-0.054,0.959-0.151c0.389-0.125,0.79-0.207,1.189-0.207
	c0.248,0,0.495,0.031,0.738,0.104c1.04,0.312,2.086,0.662,3.14,1.071c1.173,0.456,1.881,1.56,1.915,2.729l0,0
	c0.007,0.22-0.012,0.441-0.052,0.661c-0.003,0.013-0.002,0.026-0.005,0.04c-0.045,0.228-0.117,0.454-0.222,0.675
	c-1.026,2.16-2.438,5.133-3.44,7.245C78.889,85.088,77.81,85.711,76.67,85.711z M86.397,88.01c2.714,1.729,5.261,3.765,7.583,6.113
	c-0.214,0.021-0.422,0.06-0.641,0.06C89.762,94.183,86.807,91.479,86.397,88.01z M111.852,95.254
	c-0.865,3.113-3.633,4.855-6.428,4.855c-1.938,0-3.887-0.839-5.223-2.638c-4.6-6.192-10.624-11.151-17.541-14.398l2.012-4.233
	c6.779,3.176,12.883,7.889,17.811,13.945c0.6,0.736,1.486,1.158,2.434,1.158c1.485,0,2.741-1.01,3.055-2.457
	c0.876-4.055,1.193-8.219,0.943-12.377c-1.358-22.536-19.357-40.691-41.867-42.231c-1.074-0.073-2.146-0.11-3.188-0.11
	c-24.889,0-45.137,20.25-45.137,45.14c0,3.249,0.342,6.478,1.017,9.596c0.313,1.446,1.568,2.457,3.052,2.457
	c0.948,0,1.835-0.423,2.434-1.16c4.925-6.057,11.026-10.773,17.803-13.952l2.042,4.219c-6.922,3.247-12.951,8.208-17.553,14.405
	c-1.336,1.799-3.274,2.634-5.204,2.634c-2.808,0-5.594-1.771-6.464-4.915c-1.169-4.229-1.795-8.683-1.795-13.284
	c0-27.508,22.296-49.808,49.805-49.806c1.159,0,2.331,0.04,3.506,0.121c24.744,1.694,44.713,21.85,46.206,46.606
	C113.916,84.547,113.293,90.07,111.852,95.254z M115.395,72.729c-0.617-3.49-1.574-6.865-2.85-10.083
	c2.35,1.128,3.978,3.527,3.978,6.302C116.522,70.343,116.103,71.637,115.395,72.729z"/>
</svg>
